<svg xmlns="http://www.w3.org/2000/svg" width="1180" height="720" viewBox="0 0 1180 720" role="img" aria-labelledby="title desc">
  <title id="title">SpecCompass layered process</title>
  <desc id="desc">A top-down layered process diagram for SpecCompass from intent to delivery with feedback control.</desc>
  <defs>
    <linearGradient id="bg" x1="0" y1="0" x2="1" y2="1">
      <stop offset="0%" stop-color="#f8f3ea"/>
      <stop offset="100%" stop-color="#e8f0f2"/>
    </linearGradient>
    <marker id="arrow" markerWidth="12" markerHeight="12" refX="10" refY="6" orient="auto" markerUnits="strokeWidth">
      <path d="M2,2 L10,6 L2,10 Z" fill="#31564f"/>
    </marker>
    <filter id="shadow" x="-10%" y="-20%" width="120%" height="150%">
      <feDropShadow dx="0" dy="8" stdDeviation="9" flood-color="#263b35" flood-opacity="0.15"/>
    </filter>
    <style>
      .title { font: 700 30px Georgia, serif; fill: #14362f; }
      .subtitle { font: 15px ui-sans-serif, system-ui, -apple-system, Segoe UI, sans-serif; fill: #4a625d; }
      .layer-title { font: 700 17px ui-sans-serif, system-ui, -apple-system, Segoe UI, sans-serif; fill: #11362f; }
      .layer-text { font: 13px ui-sans-serif, system-ui, -apple-system, Segoe UI, sans-serif; fill: #4a625d; }
      .tag { font: 700 12px ui-sans-serif, system-ui, -apple-system, Segoe UI, sans-serif; fill: #fff; }
      .arrow { stroke: #31564f; stroke-width: 2.4; marker-end: url(#arrow); fill: none; }
      .feedback { stroke: #7d6c45; stroke-width: 2.2; stroke-dasharray: 7 7; marker-end: url(#arrow); fill: none; }
    </style>
  </defs>
  <rect width="1180" height="720" rx="28" fill="url(#bg)"/>
  <text x="58" y="62" class="title">Layered process for stable AI delivery</text>
  <text x="58" y="90" class="subtitle">Work moves downward from intent to code. Feedback moves upward when evidence, risk, or requirements do not line up.</text>

  <rect x="150" y="126" width="880" height="72" rx="18" fill="#ffffff" filter="url(#shadow)"/>
  <rect x="150" y="126" width="132" height="72" rx="18" fill="#17483d"/>
  <text x="180" y="157" class="tag">Layer 1</text>
  <text x="180" y="177" class="tag">Intent</text>
  <text x="314" y="154" class="layer-title">Constitution, PRD, /sp.specify, /sp.clarify</text>
  <text x="314" y="178" class="layer-text">Define goal, scope, constraints, success criteria, and unresolved decisions.</text>

  <rect x="150" y="230" width="880" height="72" rx="18" fill="#ffffff" filter="url(#shadow)"/>
  <rect x="150" y="230" width="132" height="72" rx="18" fill="#245f52"/>
  <text x="180" y="261" class="tag">Layer 2</text>
  <text x="180" y="281" class="tag">Structure</text>
  <text x="314" y="258" class="layer-title">/sp.plan, worksets, impact radius, multi-agent boundaries</text>
  <text x="314" y="282" class="layer-text">Split the project into safe chunks before the model context becomes overloaded.</text>

  <rect x="150" y="334" width="880" height="72" rx="18" fill="#ffffff" filter="url(#shadow)"/>
  <rect x="150" y="334" width="132" height="72" rx="18" fill="#2f6e7c"/>
  <text x="180" y="365" class="tag">Layer 3</text>
  <text x="180" y="385" class="tag">Flow</text>
  <text x="314" y="362" class="layer-title">/sp.flow connects business process to UI, API, data, tests, and code</text>
  <text x="314" y="386" class="layer-text">Flow is the relationship backbone; UI is a property of some process nodes, not an isolated artifact.</text>

  <rect x="150" y="438" width="880" height="72" rx="18" fill="#ffffff" filter="url(#shadow)"/>
  <rect x="150" y="438" width="132" height="72" rx="18" fill="#6d5932"/>
  <text x="180" y="469" class="tag">Layer 4</text>
  <text x="180" y="489" class="tag">Build</text>
  <text x="314" y="466" class="layer-title">/sp.ui, /sp.tasks, /sp.implement</text>
  <text x="314" y="490" class="layer-text">Assemble screens from flow-bound elements; implement small tasks with fresh verification evidence.</text>

  <rect x="150" y="542" width="880" height="72" rx="18" fill="#ffffff" filter="url(#shadow)"/>
  <rect x="150" y="542" width="132" height="72" rx="18" fill="#344f67"/>
  <text x="180" y="573" class="tag">Layer 5</text>
  <text x="180" y="593" class="tag">Control</text>
  <text x="314" y="570" class="layer-title">/sp.analyze, /sp.gate, memory, trace, open-items</text>
  <text x="314" y="594" class="layer-text">Close risks, detect drift, route fallback, and decide whether the next phase is safe.</text>

  <path d="M590 200 L590 226" class="arrow"/>
  <path d="M590 304 L590 330" class="arrow"/>
  <path d="M590 408 L590 434" class="arrow"/>
  <path d="M590 512 L590 538" class="arrow"/>
  <path d="M1030 578 C1100 520 1100 230 1034 164" class="feedback"/>

  <rect x="220" y="650" width="740" height="34" rx="17" fill="#e6eee9" stroke="#bbcec7"/>
  <text x="246" y="672" class="layer-text">Control rule: PASS requires evidence. Unclear or conflicting states must return to the right upper layer.</text>
</svg>
